{
	"asset":{
		"generator":"Khronos glTF Blender I/O v3.6.28",
		"version":"2.0"
	},
	"extensionsUsed":[
		"KHR_materials_specular",
		"KHR_materials_ior"
	],
	"scene":0,
	"scenes":[
		{
			"name":"Scene",
			"nodes":[
				0
			]
		}
	],
	"nodes":[
		{
			"mesh":0,
			"name":"Chara",
			"rotation":[
				0.7071068286895752,
				0,
				0,
				0.7071068286895752
			]
		}
	],
	"materials":[
		{
			"doubleSided":true,
			"extensions":{
				"KHR_materials_specular":{
					"specularColorFactor":[
						0,
						0,
						0
					]
				},
				"KHR_materials_ior":{
					"ior":1.4500000476837158
				}
			},
			"name":"palette",
			"pbrMetallicRoughness":{
				"baseColorTexture":{
					"index":0
				},
				"metallicFactor":0
			}
		}
	],
	"meshes":[
		{
			"name":"Untitled",
			"primitives":[
				{
					"attributes":{
						"POSITION":0,
						"NORMAL":1,
						"TEXCOORD_0":2
					},
					"indices":3,
					"material":0
				}
			]
		}
	],
	"textures":[
		{
			"sampler":0,
			"source":0
		}
	],
	"images":[
		{
			"bufferView":4,
			"mimeType":"image/png",
			"name":"til_2024_10_10_02"
		}
	],
	"accessors":[
		{
			"bufferView":0,
			"componentType":5126,
			"count":2441,
			"max":[
				0.800000011920929,
				0.4000000059604645,
				0
			],
			"min":[
				-1,
				-0.6000000238418579,
				-1.899999976158142
			],
			"type":"VEC3"
		},
		{
			"bufferView":1,
			"componentType":5126,
			"count":2441,
			"type":"VEC3"
		},
		{
			"bufferView":2,
			"componentType":5126,
			"count":2441,
			"type":"VEC2"
		},
		{
			"bufferView":3,
			"componentType":5123,
			"count":4368,
			"type":"SCALAR"
		}
	],
	"bufferViews":[
		{
			"buffer":0,
			"byteLength":29292,
			"byteOffset":0,
			"target":34962
		},
		{
			"buffer":0,
			"byteLength":29292,
			"byteOffset":29292,
			"target":34962
		},
		{
			"buffer":0,
			"byteLength":19528,
			"byteOffset":58584,
			"target":34962
		},
		{
			"buffer":0,
			"byteLength":8736,
			"byteOffset":78112,
			"target":34963
		},
		{
			"buffer":0,
			"byteLength":187,
			"byteOffset":86848
		}
	],
	"samplers":[
		{
			"magFilter":9729,
			"minFilter":9987
		}
	],
	"buffers":[
		{
			"byteLength":87036,
			"uri":"data:application/octet-stream;base64,"
		}
	]
}
